<svg width="128" height="128" viewBox="0 0 128 128" fill="none" xmlns="http://www.w3.org/2000/svg">
<g clip-path="url(#clip0_4039_1616)">
<rect width="128" height="128" rx="33.0667" fill="url(#paint0_linear_4039_1616)"/>
<path d="M58.7162 119.151C53.3002 116.492 47.5521 114.701 41.5996 113.806C37.8697 113.448 34.2931 115.341 32.4537 118.589C31.0231 121.504 29.8479 124.522 28.9282 127.642L63.5191 128C63.749 124.368 61.9096 120.941 58.7162 119.151ZM94.2524 0H39.377C37.0778 2.25055 34.9829 4.75684 33.118 7.44216C30.1289 11.6619 29.2603 17.0326 30.7676 21.994C32.2494 27.0066 35.9792 31.0729 40.8588 32.9654C41.242 33.1445 41.6252 33.2723 42.0339 33.4002C49.0594 35.6252 56.698 33.0422 60.9388 27.0066C67.3001 17.851 76.2672 15.0122 87.5846 18.5415C97.9312 21.7638 103.015 28.9247 100.588 36.776C98.6465 43.0162 94.5589 46.9035 77.7489 50.8164C68.603 53.0158 62.0118 55.8545 56.9535 59.8186C51.7674 63.8849 48.1908 69.2556 46.0193 76.2374L44.3332 81.6336C44.2565 81.8382 44.2054 82.0172 44.1543 82.2218C41.6763 90.6613 46.5302 99.5101 54.9608 101.965C63.3914 104.42 72.2307 99.5612 74.6832 91.1217L75.4241 88.7944C77.2635 82.8867 80.0992 80.4572 94.2779 76.8256C105.493 74.0124 113.541 70.5087 119.646 65.8286C122.993 63.2711 125.778 60.3045 128 56.8775V33.7838C128 15.1145 112.902 0 94.2524 0Z" fill="white"/>
</g>
<defs>
<linearGradient id="paint0_linear_4039_1616" x1="64" y1="-1.30243e-06" x2="20.2975" y2="131.099" gradientUnits="userSpaceOnUse">
<stop offset="0.0001" stop-color="#706AEA"/>
<stop offset="1" stop-color="#5846DB"/>
</linearGradient>
<clipPath id="clip0_4039_1616">
<rect width="128" height="128" rx="33.0667" fill="white"/>
</clipPath>
</defs>
</svg>
