<svg width="96" height="117" viewBox="0 0 96 117" fill="none" xmlns="http://www.w3.org/2000/svg">
<path fill-rule="evenodd" clip-rule="evenodd" d="M48.0098 17.9805C71.7634 17.9805 91.0195 37.2366 91.0195 60.9902C91.0195 84.7439 71.7634 104 48.0098 104C24.2561 104 5 84.7439 5 60.9902C5 37.2366 24.2561 17.9805 48.0098 17.9805ZM48.0098 28.4482C65.3442 28.4482 79.3965 42.5006 79.3965 59.835C79.3965 77.1694 65.3442 91.2217 48.0098 91.2217C30.6754 91.2217 16.623 77.1694 16.623 59.835C16.623 42.5006 30.6754 28.4482 48.0098 28.4482Z" fill="#3A327D"/>
<g filter="url(#filter0_d_1251_2098)">
<path fill-rule="evenodd" clip-rule="evenodd" d="M84.4027 59.3366C84.4027 47.0553 78.3193 36.1949 69.0014 29.6043L48.8371 1.43848L30.0546 27.6742C19.0439 33.9316 11.6169 45.7668 11.6169 59.3366C11.6169 79.4359 27.9106 95.7295 48.0098 95.7295C68.109 95.7295 84.4027 79.4359 84.4027 59.3366ZM48.0098 28.4482C65.3442 28.4482 79.3965 42.5006 79.3965 59.835C79.3965 77.1694 65.3442 91.2217 48.0098 91.2217C30.6754 91.2217 16.623 77.1694 16.623 59.835C16.623 42.5006 30.6754 28.4482 48.0098 28.4482Z" fill="url(#paint0_linear_1251_2098)"/>
</g>
<defs>
<filter id="filter0_d_1251_2098" x="0.734169" y="0.322294" width="94.5512" height="116.057" filterUnits="userSpaceOnUse" color-interpolation-filters="sRGB">
<feFlood flood-opacity="0" result="BackgroundImageFix"/>
<feColorMatrix in="SourceAlpha" type="matrix" values="0 0 0 0 0 0 0 0 0 0 0 0 0 0 0 0 0 0 127 0" result="hardAlpha"/>
<feOffset dy="9.76659"/>
<feGaussianBlur stdDeviation="5.44139"/>
<feComposite in2="hardAlpha" operator="out"/>
<feColorMatrix type="matrix" values="0 0 0 0 0 0 0 0 0 0 0 0 0 0 0 0 0 0 0.25 0"/>
<feBlend mode="normal" in2="BackgroundImageFix" result="effect1_dropShadow_1251_2098"/>
<feBlend mode="normal" in="SourceGraphic" in2="effect1_dropShadow_1251_2098" result="shape"/>
</filter>
<linearGradient id="paint0_linear_1251_2098" x1="48.0098" y1="95.7295" x2="48.0098" y2="1.43856" gradientUnits="userSpaceOnUse">
<stop stop-color="#7E70DE"/>
<stop offset="0.0001" stop-color="#7E70DE"/>
<stop offset="0.794" stop-color="#4F41AB"/>
<stop offset="1" stop-color="#7165C0"/>
</linearGradient>
</defs>
</svg>
