<svg width="48" height="48" viewBox="0 0 48 48" fill="none" xmlns="http://www.w3.org/2000/svg">
<rect width="48" height="47.9938" rx="23.9969" fill="#706AEA"/>
<g clip-path="url(#clip0_429_208)">
<path d="M12 20.1059C12.175 19.7059 12.4813 19.5559 12.9125 19.5809C13.4563 19.6059 14.0062 19.5871 14.55 19.5871C14.625 19.5871 14.7 19.5809 14.8063 19.5746C14.8063 19.3246 14.8063 19.0809 14.8063 18.8434C14.8125 18.4184 15 18.1746 15.4188 18.0871C17.9313 17.5559 20.4375 17.0309 22.95 16.5059C23.5125 16.3871 24.0813 16.2684 24.6438 16.1496C24.725 16.1309 24.8062 16.1184 24.9062 16.0996C24.9062 20.1934 24.9062 24.2621 24.9062 28.3746C24.4313 28.2809 23.975 28.1871 23.5063 28.0871C22.9938 29.7434 21.8813 30.6434 20.1125 30.7684C20.1125 31.0871 20.125 31.4121 20.1125 31.7371C20.0875 32.5121 19.5312 33.1496 18.7625 33.2871C17.7562 33.4684 16.8312 32.7184 16.825 31.6996C16.8125 30.1309 16.8187 28.5621 16.8187 26.9934C16.8187 26.8996 16.8187 26.8059 16.8187 26.6871C16.3562 26.5871 15.9063 26.4871 15.45 26.3934C15.0063 26.2996 14.8063 26.0684 14.8063 25.6121C14.8063 25.3309 14.8062 25.0496 14.8 24.7684C14.8 24.7559 14.7875 24.7434 14.7687 24.6996C14.375 24.6996 13.975 24.6996 13.5688 24.6996C13.3563 24.6996 13.1437 24.6871 12.9375 24.7059C12.5062 24.7434 12.1875 24.5934 12 24.1871C12 22.8246 12 21.4684 12 20.1059ZM22.1062 27.7934C21.4437 27.6559 20.8 27.5184 20.1375 27.3809C20.1375 28.0496 20.1375 28.6871 20.1375 29.3309C21.0125 29.3871 21.8937 28.7059 22.1062 27.7934Z" fill="white"/>
<path d="M35.9993 22.4066C35.8305 22.8129 35.5243 22.9504 35.093 22.9441C34.1805 22.9254 33.2681 22.9441 32.3556 22.9379C31.8306 22.9316 31.4993 22.4941 31.643 22.0254C31.7305 21.7379 31.9868 21.5379 32.318 21.5379C33.3055 21.5316 34.2993 21.5316 35.2868 21.5379C35.6555 21.5379 35.868 21.7629 35.9993 22.0816C35.9993 22.1879 35.9993 22.2941 35.9993 22.4066Z" fill="white"/>
<path d="M26.3309 22.2247C26.3309 20.3122 26.3247 18.3997 26.3309 16.4872C26.3309 15.5935 26.9122 14.8685 27.7309 14.7122C28.8184 14.506 29.7872 15.2747 29.8434 16.381C29.8434 16.4185 29.8434 16.456 29.8434 16.4997C29.8434 20.3185 29.8434 24.1372 29.8434 27.9497C29.8434 28.7935 29.3497 29.481 28.5934 29.706C27.4559 30.0497 26.3372 29.2185 26.3309 28.006C26.3247 26.0872 26.3309 24.156 26.3309 22.2247Z" fill="white"/>
<path d="M32.942 26.8623C33.0858 26.9311 33.2483 26.9748 33.3733 27.0686C33.8358 27.4373 34.292 27.8186 34.7483 28.1998C35.0795 28.4811 35.1233 28.9123 34.8733 29.2186C34.617 29.5311 34.192 29.5561 33.8483 29.2811C33.3858 28.9061 32.9295 28.5311 32.4795 28.1498C32.2233 27.9373 32.1545 27.6373 32.267 27.3498C32.367 27.0686 32.6233 26.8998 32.942 26.8623Z" fill="white"/>
<path d="M35.0293 15.8248C34.9793 15.9123 34.9043 16.1185 34.7606 16.2498C34.3168 16.6498 33.8418 17.0248 33.3793 17.3998C33.0481 17.6686 32.6356 17.6248 32.3793 17.3123C32.1293 17.006 32.1731 16.5873 32.4981 16.3123C32.9543 15.9248 33.4231 15.5435 33.8856 15.1623C34.1168 14.9748 34.3793 14.9373 34.6543 15.0748C34.8981 15.206 35.0168 15.4185 35.0293 15.8248Z" fill="white"/>
<path d="M22.1055 27.7934C21.893 28.7059 21.018 29.3871 20.1367 29.3309C20.1367 28.6934 20.1367 28.0496 20.1367 27.3809C20.793 27.5184 21.4367 27.6496 22.1055 27.7934Z" fill="white"/>
</g>
<defs>
<clipPath id="clip0_429_208">
<rect width="24" height="23.9938" fill="white" transform="translate(12 12)"/>
</clipPath>
</defs>
</svg>
