<svg width="48" height="48" viewBox="0 0 48 48" fill="none" xmlns="http://www.w3.org/2000/svg">
<rect width="48" height="48" rx="24" fill="#FE6E8A"/>
<path d="M20.6797 29.8984C20.6797 30.8693 21.4667 31.6562 22.4375 31.6562H25.5625C26.5333 31.6562 27.3203 30.8693 27.3203 29.8984V28.8438H20.6797V29.8984Z" fill="white"/>
<path d="M23.0234 34H24.9766C25.6238 34 26.1484 33.4754 26.1484 32.8281H21.8516C21.8516 33.4754 22.3762 34 23.0234 34Z" fill="white"/>
<path d="M33.4141 19.8594H32.2422C31.9186 19.8594 31.6562 20.1217 31.6562 20.4453C31.6562 20.7689 31.9186 21.0312 32.2422 21.0312H33.4141C33.7377 21.0312 34 20.7689 34 20.4453C34 20.1217 33.7377 19.8594 33.4141 19.8594Z" fill="white"/>
<path d="M15.7578 21.0312C16.0814 21.0312 16.3438 20.7689 16.3438 20.4453C16.3438 20.1217 16.0814 19.8594 15.7578 19.8594H14.5859C14.2623 19.8594 14 20.1217 14 20.4453C14 20.7689 14.2623 21.0312 14.5859 21.0312H15.7578Z" fill="white"/>
<path d="M31.9506 18.1899L33.0517 17.789C33.3558 17.6784 33.5126 17.3421 33.4019 17.038C33.2913 16.7339 32.955 16.5772 32.6509 16.6878L31.5497 17.0887C31.2456 17.1993 31.0889 17.5356 31.1996 17.8397C31.3102 18.1438 31.6465 18.3005 31.9506 18.1899Z" fill="white"/>
<path d="M16.0494 22.7005L14.9482 23.1014C14.6441 23.212 14.4873 23.5483 14.598 23.8524C14.7087 24.1565 15.0449 24.3132 15.349 24.2026L16.4502 23.8017C16.7543 23.6911 16.911 23.3548 16.8004 23.0507C16.6897 22.7466 16.3534 22.5899 16.0494 22.7005Z" fill="white"/>
<path d="M33.0518 23.1014L31.9506 22.7005C31.6465 22.5899 31.3103 22.7466 31.1996 23.0507C31.0889 23.3548 31.2457 23.691 31.5498 23.8017L32.6509 24.2026C32.955 24.3132 33.2912 24.1565 33.402 23.8524C33.5127 23.5483 33.3558 23.212 33.0518 23.1014Z" fill="white"/>
<path d="M16.4502 17.0887L15.349 16.6878C15.0449 16.5772 14.7087 16.7339 14.598 17.038C14.4873 17.3421 14.6441 17.6783 14.9482 17.789L16.0494 18.1899C16.3535 18.3005 16.6897 18.1438 16.8004 17.8397C16.9111 17.5356 16.7543 17.1993 16.4502 17.0887Z" fill="white"/>
<path d="M24 14C20.4461 14 17.5547 16.8914 17.5547 20.4453C17.5547 22.1043 18.1837 23.6802 19.3259 24.8827C20.0621 25.6579 20.5193 26.6317 20.6446 27.6719H27.3554C27.4807 26.6317 27.9379 25.6578 28.6742 24.8827C29.8163 23.6802 30.4453 22.1043 30.4453 20.4453C30.4453 16.8914 27.5539 14 24 14ZM24 24.1562C23.6764 24.1562 23.4141 23.8939 23.4141 23.5703C23.4141 23.2467 23.6764 22.9844 24 22.9844C24.3236 22.9844 24.5859 23.2467 24.5859 23.5703C24.5859 23.8939 24.3236 24.1562 24 24.1562ZM24.8877 20.4003C24.797 20.4534 24.5859 20.6039 24.5859 20.8532V21.2266C24.5859 21.5502 24.3236 21.8125 24 21.8125C23.6764 21.8125 23.4141 21.5502 23.4141 21.2266V20.8532C23.4141 20.2597 23.7435 19.7123 24.2953 19.3891C24.4746 19.2841 24.5859 19.0901 24.5859 18.8829C24.5859 18.5598 24.3231 18.2969 24 18.2969C23.6769 18.2969 23.4141 18.5598 23.4141 18.8829C23.4141 19.2064 23.1517 19.4688 22.8281 19.4688C22.5045 19.4688 22.2422 19.2064 22.2422 18.8829C22.2422 17.9136 23.0307 17.125 24 17.125C24.9693 17.125 25.7578 17.9136 25.7578 18.8829C25.7578 19.5044 25.4244 20.0859 24.8877 20.4003Z" fill="white"/>
</svg>
