<svg width="48" height="48" viewBox="0 0 48 48" fill="none" xmlns="http://www.w3.org/2000/svg">
<rect width="48" height="48" rx="24" fill="#FFBC3A"/>
<path d="M24 24.75C25.63 24.75 27.07 25.14 28.24 25.65C29.32 26.13 30 27.21 30 28.38V29C30 29.55 29.55 30 29 30H19C18.45 30 18 29.55 18 29V28.39C18 27.21 18.68 26.13 19.76 25.66C20.93 25.14 22.37 24.75 24 24.75ZM16 25C17.1 25 18 24.1 18 23C18 21.9 17.1 21 16 21C14.9 21 14 21.9 14 23C14 24.1 14.9 25 16 25ZM17.13 26.1C16.76 26.04 16.39 26 16 26C15.01 26 14.07 26.21 13.22 26.58C12.48 26.9 12 27.62 12 28.43V29C12 29.55 12.45 30 13 30H16.5V28.39C16.5 27.56 16.73 26.78 17.13 26.1ZM32 25C33.1 25 34 24.1 34 23C34 21.9 33.1 21 32 21C30.9 21 30 21.9 30 23C30 24.1 30.9 25 32 25ZM36 28.43C36 27.62 35.52 26.9 34.78 26.58C33.93 26.21 32.99 26 32 26C31.61 26 31.24 26.04 30.87 26.1C31.27 26.78 31.5 27.56 31.5 28.39V30H35C35.55 30 36 29.55 36 29V28.43ZM24 18C25.66 18 27 19.34 27 21C27 22.66 25.66 24 24 24C22.34 24 21 22.66 21 21C21 19.34 22.34 18 24 18Z" fill="white"/>
</svg>
