<svg width="22" height="22" viewBox="0 0 22 22" fill="none" xmlns="http://www.w3.org/2000/svg">
<path d="M13.4585 2.69141H4.48593C3.49894 2.69141 2.70038 3.49894 2.70038 4.48593L2.69141 17.0476C2.69141 18.0346 3.48997 18.8421 4.47695 18.8421H17.0476C18.0346 18.8421 18.8421 18.0346 18.8421 17.0476V8.07497L13.4585 2.69141ZM4.48593 17.0476V4.48593H12.5613V8.97223H17.0476V17.0476H4.48593ZM8.07497 7.17771C8.07497 7.6712 7.6712 8.07497 7.17771 8.07497C6.68421 8.07497 6.28045 7.6712 6.28045 7.17771C6.28045 6.68421 6.68421 6.28045 7.17771 6.28045C7.6712 6.28045 8.07497 6.68421 8.07497 7.17771ZM8.07497 10.7667C8.07497 11.2602 7.6712 11.664 7.17771 11.664C6.68421 11.664 6.28045 11.2602 6.28045 10.7667C6.28045 10.2733 6.68421 9.86949 7.17771 9.86949C7.6712 9.86949 8.07497 10.2733 8.07497 10.7667ZM8.07497 14.3558C8.07497 14.8493 7.6712 15.253 7.17771 15.253C6.68421 15.253 6.28045 14.8493 6.28045 14.3558C6.28045 13.8623 6.68421 13.4585 7.17771 13.4585C7.6712 13.4585 8.07497 13.8623 8.07497 14.3558Z" fill="#2F2F2F"/>
</svg>
