<svg width="22" height="22" viewBox="0 0 22 22" fill="none" xmlns="http://www.w3.org/2000/svg">
<path d="M11.8883 15.0198C11.8883 15.6389 11.4128 16.1503 10.7667 16.1503C10.1387 16.1503 9.6362 15.6478 9.6362 15.0198C9.6362 14.3827 10.1387 13.8982 10.7667 13.8982C11.4038 13.8982 11.8883 14.3917 11.8883 15.0198ZM10.7578 5.38319C9.16963 5.38319 8.08394 6.41504 7.68017 7.61736L9.15168 8.23647C9.34908 7.63531 9.81565 6.90853 10.7667 6.90853C12.2203 6.90853 12.5074 8.27236 11.996 8.99915C11.5115 9.69004 10.677 10.1566 10.2374 10.9372C9.88743 11.5563 9.95921 12.2741 9.95921 12.7138H11.5922C11.5922 11.8794 11.655 11.7089 11.7896 11.4487C12.1396 10.8026 12.7856 10.4976 13.4675 9.50161C14.0776 8.60435 13.8444 7.38408 13.4496 6.73805C12.992 5.98435 12.0857 5.38319 10.7578 5.38319ZM17.0476 4.48593H4.48593V17.0476H17.0476V4.48593ZM17.0476 2.69141C18.0346 2.69141 18.8421 3.49894 18.8421 4.48593V17.0476C18.8421 18.0346 18.0346 18.8421 17.0476 18.8421H4.48593C3.49894 18.8421 2.69141 18.0346 2.69141 17.0476V4.48593C2.69141 3.49894 3.49894 2.69141 4.48593 2.69141H17.0476Z" fill="#2F2F2F"/>
</svg>
