<svg width="22" height="22" viewBox="0 0 22 22" fill="none" xmlns="http://www.w3.org/2000/svg">
<path d="M18.8436 8.07574H13.1819L14.0343 3.97526L14.0612 3.68814C14.0612 3.32026 13.9087 2.97931 13.6665 2.73705L12.7154 1.79492L6.81138 7.70787C6.4794 8.03088 6.282 8.47951 6.282 8.973V17.9456C6.282 18.9326 7.08953 19.7401 8.07652 19.7401H16.1519C16.8966 19.7401 17.5336 19.2915 17.8028 18.6455L20.5125 12.3198C20.5933 12.1134 20.6382 11.8981 20.6382 11.6648V9.87026C20.6382 8.88328 19.8306 8.07574 18.8436 8.07574ZM18.8436 11.6648L16.1519 17.9456H8.07652V8.973L11.9706 5.07889L10.9747 9.87026H18.8436V11.6648ZM0.898438 8.973H4.48748V19.7401H0.898438V8.973Z" fill="#2F2F2F"/>
</svg>
