<svg width="36" height="36" viewBox="0 0 36 36" fill="none" xmlns="http://www.w3.org/2000/svg">
<rect width="36" height="36" rx="18" fill="white"/>
<path d="M24.3002 11.7102C23.9102 11.3202 23.2802 11.3202 22.8902 11.7102L18.0002 16.5902L13.1102 11.7002C12.7202 11.3102 12.0902 11.3102 11.7002 11.7002C11.3102 12.0902 11.3102 12.7202 11.7002 13.1102L16.5902 18.0002L11.7002 22.8902C11.3102 23.2802 11.3102 23.9102 11.7002 24.3002C12.0902 24.6902 12.7202 24.6902 13.1102 24.3002L18.0002 19.4102L22.8902 24.3002C23.2802 24.6902 23.9102 24.6902 24.3002 24.3002C24.6902 23.9102 24.6902 23.2802 24.3002 22.8902L19.4102 18.0002L24.3002 13.1102C24.6802 12.7302 24.6802 12.0902 24.3002 11.7102Z" fill="#121212"/>
</svg>
